<?xml version="1.0" standalone="no"?>
<!DOCTYPE svg PUBLIC "-//W3C//DTD SVG 20010904//EN" "http://www.w3.org/TR/2001/REC-SVG-20010904/DTD/svg10.dtd">
<!-- Created using Krita: https://krita.org -->
<svg xmlns="http://www.w3.org/2000/svg" 
    xmlns:xlink="http://www.w3.org/1999/xlink"
    xmlns:krita="http://krita.org/namespaces/svg/krita"
    xmlns:sodipodi="http://sodipodi.sourceforge.net/DTD/sodipodi-0.dtd"
    width="240pt"
    height="240pt"
    viewBox="0 0 240 240">
<defs/>
<path id="shape0" transform="matrix(-0.999999982573569 0 0 -0.999999982573569 206.699146961595 99.010916576014)" fill="#000000" fill-rule="evenodd" stroke="#000000" stroke-width="0.48" stroke-linecap="square" stroke-linejoin="bevel" d="M0 0L46.6107 82.0533L78.24 40.8L49.7307 52.0533Z" sodipodi:nodetypes="ccccc"/><path id="shape01" transform="matrix(-1 0 0 1 208.859146877857 139.090915022194)" fill="#000000" fill-rule="evenodd" stroke="#000000" stroke-width="0.48" stroke-linecap="square" stroke-linejoin="bevel" d="M0 0C15.64 29.84 33.56 55.36 49.2 85.2L79.92 52.56L49.32 57.36Z" sodipodi:nodetypes="ccccc"/><ellipse id="shape1" transform="translate(70.8591514410524, 60.0109175980133)" rx="69.9600019812007" ry="61.1400010081331" cx="69.9600019812007" cy="61.1400010081331" fill="#7fff00" fill-rule="evenodd" stroke-opacity="0" stroke="#000000" stroke-width="0" stroke-linecap="square" stroke-linejoin="bevel"/><path id="shape01" transform="translate(128.187336917794, 65.7423820353574)" fill="#ffffff" fill-opacity="0.474509803921569" fill-rule="evenodd" stroke-opacity="0" stroke="#000000" stroke-width="0" stroke-linecap="square" stroke-linejoin="bevel" d="M0 0.781691C11.8128 -1.49892 26.3978 1.21079 43.7548 8.9108C69.7905 20.4608 75.6597 39.3286 76.7918 46.6871C77.5465 51.5927 77.9425 56.599 77.9797 61.706C75.6485 53.5843 71.7452 45.9476 66.27 38.7958C58.0573 28.068 43.7306 17.4242 28.3408 11.0489C12.9511 4.67361 16.4151 7.29112 0 0.781691Z" sodipodi:nodetypes="czzczzc"/><path id="shape11" transform="translate(98.3216057619849, 66.1422347939069)" fill="#808080" fill-opacity="0.309803921568627" fill-rule="evenodd" stroke-opacity="0" stroke="#000000" stroke-width="0" stroke-linecap="square" stroke-linejoin="bevel" d="M81.7376 41.0887C78.0518 34.7979 71.4434 26.9195 64.6976 22.6687C53.344 15.5144 43.3897 8.91962 29.1869 4.36992C14.9841 -0.179788 15.6882 0.510069 11.6224 0C2.72071 4.24619 -1.06757 6.64242 0.25755 7.18869C-0.895855 4.01687 5.83398 4.06723 20.4471 7.33977C42.3667 12.2486 61.0533 23.2327 63.9776 24.8887C69.5625 28.0513 75.5474 34.8772 81.7376 41.0887Z" sodipodi:nodetypes="cczcczzc"/><path id="shape2" transform="matrix(-1 0 0 1 184.619147817592 10.69092)" fill="#000000" fill-rule="evenodd" stroke="#1a1a1a" stroke-width="0.48" stroke-linecap="square" stroke-linejoin="bevel" d="M142.8 123.84L81.6 0L0 94.8L79.44 41.76C73.44 33.12 94.56 60.48 142.8 123.84Z" sodipodi:nodetypes="ccccc"/><path id="shape02" transform="matrix(0.999999970224702 0 0 -0.999999970224702 105.62916100012 178.540928397453)" fill="#808080" fill-opacity="0.309803921568627" fill-rule="evenodd" stroke-opacity="0" stroke="#000000" stroke-width="0" stroke-linecap="square" stroke-linejoin="bevel" d="M75.03 48.75C71.1042 42.3992 67.2328 35.2858 61.95 28.23C56.6672 21.1742 47.2928 11.1797 34.53 6.69C21.7672 2.20029 15.2858 0.510069 11.22 0C2.76831 3.10619 0.47488 3.71373 0 4.65C6.8866 5.16818 10.0783 4.6047 24.48 9.45C38.8817 14.2953 53.4251 27.3474 59.01 31.89C64.5949 36.4326 69.7998 42.4185 75.03 48.75Z" sodipodi:nodetypes="czzcczzc"/><path id="shape3" transform="matrix(-1 0 0 1 187.259147715245 130.69092)" fill="#000000" fill-rule="evenodd" stroke="#000000" stroke-width="0.48" stroke-linecap="square" stroke-linejoin="bevel" d="M145.08 4.19999L72.72 96.36L0 0L74.88 54.6Z" sodipodi:nodetypes="ccccc"/>
</svg>
